<svg width="9" height="15" viewBox="0 0 9 15" fill="none" xmlns="http://www.w3.org/2000/svg">
<path d="M8.57357 0.00194805L6.43714 0C4.03714 0 2.48571 1.4474 2.48571 3.68571V5.38636H0.336429C0.15 5.38636 0 5.52273 0 5.69221V8.15455C0 8.32208 0.15 8.46039 0.336429 8.46039H2.48571V14.6747C2.48571 14.8422 2.63571 14.9805 2.82214 14.9805H5.625C5.81143 14.9805 5.96143 14.8442 5.96143 14.6747V8.46039H8.47286C8.65929 8.46039 8.80929 8.32403 8.80929 8.15455L8.81143 5.69221C8.81143 5.61234 8.775 5.53442 8.71286 5.47597C8.65071 5.41948 8.565 5.38636 8.475 5.38636H5.95929V3.94481C5.95929 3.25325 6.14143 2.90065 7.13357 2.90065H8.57357C8.76 2.90065 8.91 2.76429 8.91 2.59481V0.30974C8.90786 0.14026 8.76 0.0038961 8.57357 0.00194805Z" fill="black"/>
</svg>
