<svg width="17" height="17" viewBox="0 0 17 17" fill="none" xmlns="http://www.w3.org/2000/svg">
<path d="M11.6875 0H5.3125C2.379 0 0 2.379 0 5.3125V11.6875C0 14.621 2.379 17 5.3125 17H11.6875C14.621 17 17 14.621 17 11.6875V5.3125C17 2.379 14.621 0 11.6875 0ZM15.4062 11.6875C15.4062 13.7381 13.7381 15.4062 11.6875 15.4062H5.3125C3.26188 15.4062 1.59375 13.7381 1.59375 11.6875V5.3125C1.59375 3.26188 3.26188 1.59375 5.3125 1.59375H11.6875C13.7381 1.59375 15.4062 3.26188 15.4062 5.3125V11.6875Z" fill="black"/>
</svg>
