<svg width="16" height="12" viewBox="0 0 16 12" fill="none" xmlns="http://www.w3.org/2000/svg">
<path d="M16.0007 1.42067C15.4057 1.66154 14.7716 1.82135 14.1107 1.89894C14.7907 1.52423 15.3097 0.935192 15.5538 0.225288C14.9197 0.574327 14.2197 0.820673 13.4738 0.958269C12.8716 0.366346 12.0138 0 11.0775 0C9.2616 0 7.79941 1.36067 7.79941 3.02856C7.79941 3.26856 7.82129 3.49933 7.87535 3.71913C5.14879 3.59625 2.73566 2.3899 1.11473 0.552115C0.831602 1.00529 0.665664 1.52423 0.665664 2.08269C0.665664 3.13125 1.25066 4.06096 2.12254 4.59894C1.59566 4.58971 1.07848 4.44837 0.640664 4.22596C0.640664 4.23519 0.640664 4.24731 0.640664 4.25913C0.640664 5.73058 1.77754 6.95279 3.26879 7.23433C3.00191 7.30183 2.71066 7.33413 2.40879 7.33413C2.19879 7.33413 1.98691 7.32317 1.78785 7.2825C2.21285 8.48164 3.41879 9.36317 4.85285 9.39173C3.73691 10.1977 2.31973 10.6832 0.785976 10.6832C0.516914 10.6832 0.259102 10.6722 0.000976562 10.6416C1.45379 11.5062 3.17566 12 5.03254 12C11.0685 12 14.3685 7.38462 14.3685 3.38394C14.3685 3.2501 14.3635 3.12087 14.3566 2.9925C15.0075 2.56615 15.5547 2.03365 16.0007 1.42067Z" fill="black"/>
</svg>
